<?xml version="1.0" encoding="UTF-8"?>
<svg id="Layer_1" xmlns="http://www.w3.org/2000/svg" version="1.1" viewBox="0 0 595.28 841.89">
  <!-- Generator: Adobe Illustrator 29.5.1, SVG Export Plug-In . SVG Version: 2.1.0 Build 141)  -->
  <defs>
    <style>
      .st0, .st1, .st2, .st3, .st4, .st5, .st6, .st7, .st8 {
        stroke-miterlimit: 10;
      }

      .st0, .st1, .st2, .st3, .st4, .st6, .st7, .st8 {
        stroke: #231f20;
      }

      .st0, .st5 {
        fill: none;
      }

      .st1, .st6 {
        fill: #ed1c24;
      }

      .st1, .st7 {
        stroke-width: .25px;
      }

      .st9 {
        fill: #231f20;
      }

      .st2 {
        fill: #000421;
      }

      .st10 {
        fill: #4c5424;
      }

      .st3 {
        fill: #050606;
      }

      .st4 {
        fill: #d1d3d4;
      }

      .st5 {
        stroke: #bcbec0;
        stroke-width: 3px;
      }

      .st7 {
        fill: #fff;
        font-family: EthnocentricRg-Bold, Ethnocentric;
        font-size: 16.91px;
        font-weight: 700;
      }

      .st8 {
        fill: #fed7ae;
      }
    </style>
  </defs>
  <path class="st2" d="M452.95,231.5c-5.86-139.53-115.47-126.78-115.47-126.78-103.79-2.66-117.87,103.92-117.87,103.92l-.24,24.8h14.11s14.26,0,14.26,0"/>
  <path class="st1" d="M439.13,219.76c1-122.3-127.67-102.4-127.67-102.4l.97,99.8,126.7,2.6Z"/>
  <path class="st2" d="M452.95,231.5l-13.81,1.94c3.37,83.46-49.8,101.15-49.8,101.15l1.1,11.33c65.8-4.39,76.64,50.08,76.64,50.08l-.6,146.59s2.19-.39-1.83,5.47h-254.76c-4.39-2.74-2.74-4.66-2.74-4.66l-1.65-98.7c-16.72-9.6-16.45-15.35-16.45-15.35-10.14-6.03-12.89-57.3-15.08-60.32-2.19-3.02,14.26-9.87,12.61-10.14-1.65-.27-15.63-52.64-15.63-52.64l6.58-6.85-50.72-180.01,30.16-7.25,50.17,177.94s11.57,6.2,13.52,19.24l12.81,45.65s27.63-15.65,51.76-8.48l-1.96-10.04s-54.93-26.32-49.8-103.01h-14.11"/>
  <path class="st10" d="M311.46,117.36s-72.36,2.9-77.98,101.11l78.95-1.32"/>
  <path class="st8" d="M335.37,336.46c-113.61-14.33-87.64-103.01-87.64-103.01h176.02s16.45,98.55-86.09,103.01h-2.29Z"/>
  <polyline class="st3" points="233.48 548.07 233.48 749.39 296.55 749.39 296.55 548.07"/>
  <polyline class="st3" points="379.94 548.07 379.94 749.39 443.01 749.39 443.01 548.07"/>
  <path class="st8" d="M185.85,375.06s13.67,51.41,22.13,60.52c0,0,20.82-6.81,17.57-24.23,0,0,3.9-51.26-39.7-36.29Z"/>
  <polygon class="st4" points="225.89 372.32 205.87 302.01 185.85 309.4 198.88 357.93 225.89 372.32"/>
  <line class="st5" x1="190.44" y1="290.4" x2="145.08" y2="126.87"/>
  <polygon class="st4" points="239.59 419.65 225.89 442.74 239.59 500.95 283.75 500.95 239.59 419.65"/>
  <path class="st6" d="M418.24,359.43l-6.77,141.52h-98.56v35.13h141.46v-141.52s-21.08-39.14-36.13-35.13Z"/>
  <path class="st1" d="M399.17,359.14v129.76s-85.96-1-96.18,4.01c-10.21,5.02-29.56-38.14-29.56-38.14v-100.37l61.52,56.94,64.22-52.21Z"/>
  <polygon class="st6" points="312.92 372.32 334.96 395.56 362.04 372.32 312.92 372.32"/>
  <polygon class="st6" points="254.82 359.14 265.01 435.58 239.59 366.46 254.82 359.14"/>
  <path class="st8" d="M233.48,518.01c-21.33,9.57,63.47,13.05,63.47,13.05v-18.07s-54.52,1-63.47,5.02Z"/>
  <path class="st0" d="M222.02,225.76"/>
  <g>
    <path class="st9" d="M367.53,258.92c5.93.01,10.74-4.78,10.75-10.71l-21.46-.04c-.01,5.93,4.78,10.74,10.71,10.75Z"/>
    <path class="st0" d="M394.78,248.28l-54.45-.11c-.03,15.04,12.13,27.25,27.17,27.28,15.04.03,27.25-12.13,27.28-27.17Z"/>
  </g>
  <g>
    <path class="st9" d="M300.16,258.94c5.93.01,10.74-4.78,10.75-10.71l-21.46-.04c-.01,5.93,4.78,10.74,10.71,10.75Z"/>
    <path class="st0" d="M327.4,248.3l-54.45-.11c-.03,15.04,12.13,27.25,27.17,27.28,15.04.03,27.25-12.13,27.28-27.17Z"/>
  </g>
  <line class="st0" x1="310.91" y1="302.01" x2="362.04" y2="302.01"/>
  <text class="st7" transform="translate(280.59 433.93)"><tspan x="0" y="0">Jylland</tspan></text>
</svg>