<?xml version="1.0" encoding="UTF-8"?>
<svg id="Layer_1" xmlns="http://www.w3.org/2000/svg" version="1.1" viewBox="0 0 595.28 841.89">
  <!-- Generator: Adobe Illustrator 29.5.1, SVG Export Plug-In . SVG Version: 2.1.0 Build 141)  -->
  <defs>
    <style>
      .st0 {
        fill: #fff;
        font-family: EthnocentricRg-Bold, Ethnocentric;
        font-size: 14.19px;
        font-weight: 700;
      }

      .st0, .st1, .st2, .st3, .st4, .st5, .st6, .st7, .st8 {
        stroke-miterlimit: 10;
      }

      .st0, .st1, .st2, .st3, .st4, .st6, .st7, .st8 {
        stroke: #231f20;
      }

      .st0, .st7 {
        stroke-width: .25px;
      }

      .st1, .st5 {
        fill: none;
      }

      .st9 {
        fill: #231f20;
      }

      .st2 {
        fill: #000421;
      }

      .st10 {
        fill: #4c5424;
      }

      .st3 {
        fill: #050606;
      }

      .st4 {
        fill: #d1d3d4;
      }

      .st5 {
        stroke: #bcbec0;
        stroke-width: 3px;
      }

      .st6, .st7 {
        fill: #2e3192;
      }

      .st8 {
        fill: #fed7ae;
      }
    </style>
  </defs>
  <path class="st2" d="M454,230.22c-5.9-140.48-116.26-127.64-116.26-127.64-104.49-2.68-118.67,104.62-118.67,104.62l-.24,24.97h14.21s14.35,0,14.35,0"/>
  <path class="st7" d="M440.09,218.4c1.01-123.13-128.54-103.09-128.54-103.09l.98,100.47,127.56,2.62Z"/>
  <path class="st2" d="M454,230.22l-13.9,1.95c3.39,84.03-50.14,101.84-50.14,101.84l1.1,11.41c66.25-4.42,77.16,50.42,77.16,50.42l-.6,147.59s2.21-.39-1.84,5.51H209.3c-4.42-2.76-2.76-4.69-2.76-4.69l-1.66-99.37c-16.84-9.66-16.56-15.46-16.56-15.46-10.21-6.07-12.97-57.69-15.18-60.73-2.21-3.04,14.35-9.94,12.7-10.21-1.66-.28-15.73-53-15.73-53l6.62-6.9-51.07-181.23,30.36-7.3,50.51,179.15s11.64,6.24,13.61,19.38l12.89,45.96s27.82-15.76,52.11-8.54l-1.97-10.11s-55.3-26.5-50.14-103.71h-14.21"/>
  <path class="st10" d="M311.55,115.3s-72.85,2.92-78.51,101.8l79.49-1.33"/>
  <path class="st8" d="M335.63,335.88c-114.38-14.43-88.23-103.71-88.23-103.71h177.22s16.56,99.22-86.68,103.71h-2.31Z"/>
  <polyline class="st3" points="233.04 548.94 233.04 751.62 296.54 751.62 296.54 548.94"/>
  <polyline class="st3" points="380.5 548.94 380.5 751.62 443.99 751.62 443.99 548.94"/>
  <path class="st8" d="M185.09,374.75s13.76,51.76,22.28,60.93c0,0,20.97-6.86,17.69-24.39,0,0,3.93-51.61-39.97-36.54Z"/>
  <polygon class="st4" points="225.4 371.99 205.24 301.21 185.09 308.64 198.21 357.5 225.4 371.99"/>
  <line class="st5" x1="189.71" y1="289.52" x2="144.04" y2="124.88"/>
  <polygon class="st4" points="239.19 419.65 225.4 442.89 239.19 501.5 283.65 501.5 239.19 419.65"/>
  <path class="st6" d="M419.06,359.02l-6.81,142.48h-99.23v35.37h142.42v-142.48s-21.22-39.41-36.38-35.37Z"/>
  <path class="st6" d="M399.86,358.72v130.64s-86.55-1.01-96.83,4.04c-10.28,5.05-29.76-38.4-29.76-38.4v-101.05l61.93,57.32,64.65-52.56Z"/>
  <polygon class="st6" points="313.02 371.99 335.21 395.39 362.47 371.99 313.02 371.99"/>
  <polygon class="st6" points="254.53 358.72 264.79 435.68 239.19 366.09 254.53 358.72"/>
  <path class="st8" d="M233.04,518.67c-21.47,9.63,63.9,13.14,63.9,13.14v-18.19s-54.89,1.01-63.9,5.05Z"/>
  <path class="st1" d="M221.51,224.44"/>
  <g>
    <path class="st9" d="M368.01,257.82c5.97.01,10.81-4.81,10.82-10.78l-21.6-.04c-.01,5.97,4.81,10.81,10.78,10.82Z"/>
    <path class="st1" d="M395.44,247.11l-54.82-.11c-.03,15.14,12.21,27.43,27.35,27.47,15.14.03,27.43-12.21,27.47-27.35Z"/>
  </g>
  <g>
    <path class="st9" d="M300.17,257.84c5.97.01,10.81-4.81,10.82-10.78l-21.6-.04c-.01,5.97,4.81,10.81,10.78,10.82Z"/>
    <path class="st1" d="M327.6,247.13l-54.82-.11c-.03,15.14,12.21,27.43,27.35,27.47,15.14.03,27.43-12.21,27.47-27.35Z"/>
  </g>
  <line class="st1" x1="311" y1="301.21" x2="362.47" y2="301.21"/>
  <text class="st0" transform="translate(283.66 428.31)"><tspan x="0" y="0">Sjælland</tspan></text>
</svg>